<svg xmlns="http://www.w3.org/2000/svg" xmlns:xlink="http://www.w3.org/1999/xlink" width="900" height="1036.95"><rect width="900" height="1036.95" rx="5" ry="5" class="a"/><svg y="0%" x="0%"><circle cx="20" cy="20" r="6" fill="#ff5f58"/><circle cx="40" cy="20" r="6" fill="#ffbd2e"/><circle cx="60" cy="20" r="6" fill="#18c132"/></svg><svg height="976.95" viewBox="0 0 86 97.695" width="860" x="15" xmlns="http://www.w3.org/2000/svg" xmlns:xlink="http://www.w3.org/1999/xlink" y="50"><style>@keyframes m{0%{transform:translateX(0)}.8%{transform:translateX(-86px)}14.3%{transform:translateX(-258px)}14.4%{transform:translateX(-602px)}26.1%{transform:translateX(-688px)}31%{transform:translateX(-774px)}31.4%{transform:translateX(-860px)}31.5%{transform:translateX(-1032px)}33.2%{transform:translateX(-1204px)}34.8%{transform:translateX(-1290px)}36.5%{transform:translateX(-1462px)}38.2%{transform:translateX(-1634px)}39.8%{transform:translateX(-1806px)}41.5%{transform:translateX(-2064px)}43.2%{transform:translateX(-2236px)}44.9%{transform:translateX(-2408px)}46.5%{transform:translateX(-2580px)}48.1%{transform:translateX(-2838px)}49.9%{transform:translateX(-3010px)}51.5%{transform:translateX(-3182px)}53.1%{transform:translateX(-3354px)}54.8%{transform:translateX(-3526px)}56.4%{transform:translateX(-3698px)}58.1%{transform:translateX(-3870px)}59.8%{transform:translateX(-4042px)}61.4%{transform:translateX(-4300px)}63.1%{transform:translateX(-4472px)}64.9%{transform:translateX(-4644px)}66.5%{transform:translateX(-4816px)}68.1%{transform:translateX(-4988px)}69.8%{transform:translateX(-5160px)}71.5%{transform:translateX(-5332px)}73.1%{transform:translateX(-5504px)}74.8%{transform:translateX(-5676px)}76.5%{transform:translateX(-5848px)}78.1%{transform:translateX(-5934px)}78.2%{transform:translateX(-6020px)}79.9%{transform:translateX(-6192px)}81.5%{transform:translateX(-6364px)}83.2%{transform:translateX(-6536px)}84.9%{transform:translateX(-6708px)}86.6%{transform:translateX(-6880px)}88.2%{transform:translateX(-7052px)}89.9%{transform:translateX(-7224px)}91.6%{transform:translateX(-7396px)}93.3%{transform:translateX(-7568px)}94.9%{transform:translateX(-7740px)}96.6%{transform:translateX(-7912px)}98.4%{transform:translateX(-8084px)}to{transform:translateX(-8256px)}}.a{fill:#000}.f{fill:#fff}.g{fill:#1dc121}.h{fill:#686868}.i{fill:#c51e14}.j{fill:#20c5c6}</style><g font-size="1.67" font-family="Monaco,Consolas,Menlo,'Bitstream Vera Sans Mono','Powerline Symbols',monospace"><defs><symbol id="1"><text y="1.67" class="f">~$</text><text x="3.006" y="1.67" class="f">cliconcat</text><text x="13.026" y="1.67" class="f">-f</text><text x="16.032" y="1.67" class="f">hp4</text><text x="20.04" y="1.67" class="f">-o</text><text x="23.046" y="1.67" class="f">hp4.mp3</text></symbol><symbol id="2"><text y="1.67" class="g">Found</text><text x="6.012" y="1.67" class="g">2</text><text x="8.016" y="1.67" class="g">Files:</text></symbol><symbol id="3"><text y="1.67" class="h">┌────────┬──────────────────────────────────┐</text></symbol><symbol id="4"><text y="1.67" class="h">│</text><text x="2.004" y="1.67" class="i">Order:</text><text x="9.018" y="1.67" class="h">│</text><text x="11.022" y="1.67" class="i">Files:</text><text x="44.088" y="1.67" class="h">│</text></symbol><symbol id="5"><text y="1.67" class="h">├────────┼──────────────────────────────────┤</text></symbol><symbol id="6"><text y="1.67" class="h">│</text><text x="2.004" y="1.67" class="f">1</text><text x="9.018" y="1.67" class="h">│</text><text x="11.022" y="1.67" class="f">hp4/Chapter01-TheRiddleHouse.mp3</text><text x="44.088" y="1.67" class="h">│</text></symbol><symbol id="7"><text y="1.67" class="h">│</text><text x="2.004" y="1.67" class="f">2</text><text x="9.018" y="1.67" class="h">│</text><text x="11.022" y="1.67" class="f">hp4/Chapter02-TheScar.mp3</text><text x="44.088" y="1.67" class="h">│</text></symbol><symbol id="8"><text y="1.67" class="h">└────────┴──────────────────────────────────┘</text></symbol><symbol id="9"><text y="1.67" class="j">⠋</text><text x="2.004" y="1.67" class="f">Merging</text><text x="10.02" y="1.67" class="f">2</text><text x="12.024" y="1.67" class="f">Files</text></symbol><symbol id="10"><text y="1.67" class="j">⠙</text><text x="2.004" y="1.67" class="f">Merging</text><text x="10.02" y="1.67" class="f">2</text><text x="12.024" y="1.67" class="f">Files</text></symbol><symbol id="11"><text y="1.67" class="j">⠹</text><text x="2.004" y="1.67" class="f">Merging</text><text x="10.02" y="1.67" class="f">2</text><text x="12.024" y="1.67" class="f">Files</text></symbol><symbol id="12"><text y="1.67" class="j">⠸</text><text x="2.004" y="1.67" class="f">Merging</text><text x="10.02" y="1.67" class="f">2</text><text x="12.024" y="1.67" class="f">Files</text></symbol><symbol id="13"><text y="1.67" class="j">⠼</text><text x="2.004" y="1.67" class="f">Merging</text><text x="10.02" y="1.67" class="f">2</text><text x="12.024" y="1.67" class="f">Files</text></symbol><symbol id="14"><text y="1.67" class="j">⠴</text><text x="2.004" y="1.67" class="f">Merging</text><text x="10.02" y="1.67" class="f">2</text><text x="12.024" y="1.67" class="f">Files</text></symbol><symbol id="15"><text y="1.67" class="j">⠦</text><text x="2.004" y="1.67" class="f">Merging</text><text x="10.02" y="1.67" class="f">2</text><text x="12.024" y="1.67" class="f">Files</text></symbol><symbol id="16"><text y="1.67" class="j">⠧</text><text x="2.004" y="1.67" class="f">Merging</text><text x="10.02" y="1.67" class="f">2</text><text x="12.024" y="1.67" class="f">Files</text></symbol><symbol id="17"><text y="1.67" class="j">⠇</text><text x="2.004" y="1.67" class="f">Merging</text><text x="10.02" y="1.67" class="f">2</text><text x="12.024" y="1.67" class="f">Files</text></symbol><symbol id="18"><text y="1.67" class="j">⠏</text><text x="2.004" y="1.67" class="f">Merging</text><text x="10.02" y="1.67" class="f">2</text><text x="12.024" y="1.67" class="f">Files</text></symbol><symbol id="a"><path fill="transparent" d="M0 0h86v45H0z"/></symbol><symbol id="b"><path fill="#f81ce5" d="M0 0h1.102v2.171H0z"/></symbol></defs><path class="a" d="M0 0h86v97.695H0z"/><g style="animation-duration:4.930277s;animation-iteration-count:infinite;animation-name:m;animation-timing-function:steps(1,end)"><svg width="8342"><svg><use xlink:href="#a"/><use xlink:href="#b" x="-.004"/></svg><svg x="86"><use xlink:href="#a"/><use xlink:href="#b" x="2.996"/><text y="1.67" class="f">~$</text></svg><svg x="172"><use xlink:href="#a"/><use xlink:href="#b" x="4.996"/><text y="1.67" class="f">~$</text><text x="3.006" y="1.67" class="f">cl</text></svg><svg x="258"><use xlink:href="#a"/><use xlink:href="#b" x="12.996"/><text y="1.67" class="f">~$</text><text x="3.006" y="1.67" class="f">cliconcat</text></svg><svg x="344"><use xlink:href="#a"/><use xlink:href="#b" x="18.996"/><text y="1.67" class="f">~$</text><text x="3.006" y="1.67" class="f">cliconcat</text><text x="13.026" y="1.67" class="f">-f</text><text x="16.032" y="1.67" class="f">hp4</text></svg><svg x="430"><use xlink:href="#a"/><use xlink:href="#b" x="22.996"/><text y="1.67" class="f">~$</text><text x="3.006" y="1.67" class="f">cliconcat</text><text x="13.026" y="1.67" class="f">-f</text><text x="16.032" y="1.67" class="f">hp4</text><text x="20.04" y="1.67" class="f">-o</text></svg><svg x="516"><use xlink:href="#a"/><use xlink:href="#b" x="26.996"/><text y="1.67" class="f">~$</text><text x="3.006" y="1.67" class="f">cliconcat</text><text x="13.026" y="1.67" class="f">-f</text><text x="16.032" y="1.67" class="f">hp4</text><text x="20.04" y="1.67" class="f">-o</text><text x="23.046" y="1.67" class="f">hp4.</text></svg><svg x="602"><use xlink:href="#a"/><use xlink:href="#b" x="29.996"/><use xlink:href="#1"/></svg><svg x="688"><use xlink:href="#a"/><use xlink:href="#b" x="-.004" y="2.146"/><use xlink:href="#1"/></svg><svg x="774"><use xlink:href="#a"/><use xlink:href="#b" x="-.004" y="4.317"/><use xlink:href="#1"/><use xlink:href="#2" y="2.171"/></svg><svg x="860"><use xlink:href="#a"/><use xlink:href="#b" x="-.004" y="19.514"/><use xlink:href="#1"/><use xlink:href="#2" y="2.171"/><use xlink:href="#3" y="4.342"/><use xlink:href="#4" y="6.513"/><use xlink:href="#5" y="8.684"/><use xlink:href="#6" y="10.855"/><use xlink:href="#5" y="13.026"/><use xlink:href="#7" y="15.197"/><use xlink:href="#8" y="17.368"/></svg><svg x="946"><use xlink:href="#a"/><use xlink:href="#1"/><use xlink:href="#2" y="2.171"/><use xlink:href="#3" y="4.342"/><use xlink:href="#4" y="6.513"/><use xlink:href="#5" y="8.684"/><use xlink:href="#6" y="10.855"/><use xlink:href="#5" y="13.026"/><use xlink:href="#7" y="15.197"/><use xlink:href="#8" y="17.368"/></svg><svg x="1032"><use xlink:href="#a"/><use xlink:href="#1"/><use xlink:href="#2" y="2.171"/><use xlink:href="#3" y="4.342"/><use xlink:href="#4" y="6.513"/><use xlink:href="#5" y="8.684"/><use xlink:href="#6" y="10.855"/><use xlink:href="#5" y="13.026"/><use xlink:href="#7" y="15.197"/><use xlink:href="#8" y="17.368"/><use xlink:href="#9" y="19.539"/></svg><svg x="1118"><use xlink:href="#a"/><use xlink:href="#1"/><use xlink:href="#2" y="2.171"/><use xlink:href="#3" y="4.342"/><use xlink:href="#4" y="6.513"/><use xlink:href="#5" y="8.684"/><use xlink:href="#6" y="10.855"/><use xlink:href="#5" y="13.026"/><use xlink:href="#7" y="15.197"/><use xlink:href="#8" y="17.368"/></svg><svg x="1204"><use xlink:href="#a"/><use xlink:href="#1"/><use xlink:href="#2" y="2.171"/><use xlink:href="#3" y="4.342"/><use xlink:href="#4" y="6.513"/><use xlink:href="#5" y="8.684"/><use xlink:href="#6" y="10.855"/><use xlink:href="#5" y="13.026"/><use xlink:href="#7" y="15.197"/><use xlink:href="#8" y="17.368"/><use xlink:href="#10" y="19.539"/></svg><svg x="1290"><use xlink:href="#a"/><use xlink:href="#1"/><use xlink:href="#2" y="2.171"/><use xlink:href="#3" y="4.342"/><use xlink:href="#4" y="6.513"/><use xlink:href="#5" y="8.684"/><use xlink:href="#6" y="10.855"/><use xlink:href="#5" y="13.026"/><use xlink:href="#7" y="15.197"/><use xlink:href="#8" y="17.368"/><use xlink:href="#11" y="19.539"/></svg><svg x="1376"><use xlink:href="#a"/><use xlink:href="#1"/><use xlink:href="#2" y="2.171"/><use xlink:href="#3" y="4.342"/><use xlink:href="#4" y="6.513"/><use xlink:href="#5" y="8.684"/><use xlink:href="#6" y="10.855"/><use xlink:href="#5" y="13.026"/><use xlink:href="#7" y="15.197"/><use xlink:href="#8" y="17.368"/></svg><svg x="1462"><use xlink:href="#a"/><use xlink:href="#1"/><use xlink:href="#2" y="2.171"/><use xlink:href="#3" y="4.342"/><use xlink:href="#4" y="6.513"/><use xlink:href="#5" y="8.684"/><use xlink:href="#6" y="10.855"/><use xlink:href="#5" y="13.026"/><use xlink:href="#7" y="15.197"/><use xlink:href="#8" y="17.368"/><use xlink:href="#12" y="19.539"/></svg><svg x="1548"><use xlink:href="#a"/><use xlink:href="#1"/><use xlink:href="#2" y="2.171"/><use xlink:href="#3" y="4.342"/><use xlink:href="#4" y="6.513"/><use xlink:href="#5" y="8.684"/><use xlink:href="#6" y="10.855"/><use xlink:href="#5" y="13.026"/><use xlink:href="#7" y="15.197"/><use xlink:href="#8" y="17.368"/></svg><svg x="1634"><use xlink:href="#a"/><use xlink:href="#1"/><use xlink:href="#2" y="2.171"/><use xlink:href="#3" y="4.342"/><use xlink:href="#4" y="6.513"/><use xlink:href="#5" y="8.684"/><use xlink:href="#6" y="10.855"/><use xlink:href="#5" y="13.026"/><use xlink:href="#7" y="15.197"/><use xlink:href="#8" y="17.368"/><use xlink:href="#13" y="19.539"/></svg><svg x="1720"><use xlink:href="#a"/><use xlink:href="#1"/><use xlink:href="#2" y="2.171"/><use xlink:href="#3" y="4.342"/><use xlink:href="#4" y="6.513"/><use xlink:href="#5" y="8.684"/><use xlink:href="#6" y="10.855"/><use xlink:href="#5" y="13.026"/><use xlink:href="#7" y="15.197"/><use xlink:href="#8" y="17.368"/></svg><svg x="1806"><use xlink:href="#a"/><use xlink:href="#1"/><use xlink:href="#2" y="2.171"/><use xlink:href="#3" y="4.342"/><use xlink:href="#4" y="6.513"/><use xlink:href="#5" y="8.684"/><use xlink:href="#6" y="10.855"/><use xlink:href="#5" y="13.026"/><use xlink:href="#7" y="15.197"/><use xlink:href="#8" y="17.368"/><use xlink:href="#14" y="19.539"/></svg><svg x="1892"><use xlink:href="#a"/><use xlink:href="#1"/><use xlink:href="#2" y="2.171"/><use xlink:href="#3" y="4.342"/><use xlink:href="#4" y="6.513"/><use xlink:href="#5" y="8.684"/><use xlink:href="#6" y="10.855"/><use xlink:href="#5" y="13.026"/><use xlink:href="#7" y="15.197"/><use xlink:href="#8" y="17.368"/></svg><svg x="1978"><use xlink:href="#a"/><use xlink:href="#1"/><use xlink:href="#2" y="2.171"/><use xlink:href="#3" y="4.342"/><use xlink:href="#4" y="6.513"/><use xlink:href="#5" y="8.684"/><use xlink:href="#6" y="10.855"/><use xlink:href="#5" y="13.026"/><use xlink:href="#7" y="15.197"/><use xlink:href="#8" y="17.368"/></svg><svg x="2064"><use xlink:href="#a"/><use xlink:href="#1"/><use xlink:href="#2" y="2.171"/><use xlink:href="#3" y="4.342"/><use xlink:href="#4" y="6.513"/><use xlink:href="#5" y="8.684"/><use xlink:href="#6" y="10.855"/><use xlink:href="#5" y="13.026"/><use xlink:href="#7" y="15.197"/><use xlink:href="#8" y="17.368"/><use xlink:href="#15" y="19.539"/></svg><svg x="2150"><use xlink:href="#a"/><use xlink:href="#1"/><use xlink:href="#2" y="2.171"/><use xlink:href="#3" y="4.342"/><use xlink:href="#4" y="6.513"/><use xlink:href="#5" y="8.684"/><use xlink:href="#6" y="10.855"/><use xlink:href="#5" y="13.026"/><use xlink:href="#7" y="15.197"/><use xlink:href="#8" y="17.368"/></svg><svg x="2236"><use xlink:href="#a"/><use xlink:href="#1"/><use xlink:href="#2" y="2.171"/><use xlink:href="#3" y="4.342"/><use xlink:href="#4" y="6.513"/><use xlink:href="#5" y="8.684"/><use xlink:href="#6" y="10.855"/><use xlink:href="#5" y="13.026"/><use xlink:href="#7" y="15.197"/><use xlink:href="#8" y="17.368"/><use xlink:href="#16" y="19.539"/></svg><svg x="2322"><use xlink:href="#a"/><use xlink:href="#1"/><use xlink:href="#2" y="2.171"/><use xlink:href="#3" y="4.342"/><use xlink:href="#4" y="6.513"/><use xlink:href="#5" y="8.684"/><use xlink:href="#6" y="10.855"/><use xlink:href="#5" y="13.026"/><use xlink:href="#7" y="15.197"/><use xlink:href="#8" y="17.368"/></svg><svg x="2408"><use xlink:href="#a"/><use xlink:href="#1"/><use xlink:href="#2" y="2.171"/><use xlink:href="#3" y="4.342"/><use xlink:href="#4" y="6.513"/><use xlink:href="#5" y="8.684"/><use xlink:href="#6" y="10.855"/><use xlink:href="#5" y="13.026"/><use xlink:href="#7" y="15.197"/><use xlink:href="#8" y="17.368"/><use xlink:href="#17" y="19.539"/></svg><svg x="2494"><use xlink:href="#a"/><use xlink:href="#1"/><use xlink:href="#2" y="2.171"/><use xlink:href="#3" y="4.342"/><use xlink:href="#4" y="6.513"/><use xlink:href="#5" y="8.684"/><use xlink:href="#6" y="10.855"/><use xlink:href="#5" y="13.026"/><use xlink:href="#7" y="15.197"/><use xlink:href="#8" y="17.368"/></svg><svg x="2580"><use xlink:href="#a"/><use xlink:href="#1"/><use xlink:href="#2" y="2.171"/><use xlink:href="#3" y="4.342"/><use xlink:href="#4" y="6.513"/><use xlink:href="#5" y="8.684"/><use xlink:href="#6" y="10.855"/><use xlink:href="#5" y="13.026"/><use xlink:href="#7" y="15.197"/><use xlink:href="#8" y="17.368"/><use xlink:href="#18" y="19.539"/></svg><svg x="2666"><use xlink:href="#a"/><use xlink:href="#1"/><use xlink:href="#2" y="2.171"/><use xlink:href="#3" y="4.342"/><use xlink:href="#4" y="6.513"/><use xlink:href="#5" y="8.684"/><use xlink:href="#6" y="10.855"/><use xlink:href="#5" y="13.026"/><use xlink:href="#7" y="15.197"/><use xlink:href="#8" y="17.368"/></svg><svg x="2752"><use xlink:href="#a"/><use xlink:href="#1"/><use xlink:href="#2" y="2.171"/><use xlink:href="#3" y="4.342"/><use xlink:href="#4" y="6.513"/><use xlink:href="#5" y="8.684"/><use xlink:href="#6" y="10.855"/><use xlink:href="#5" y="13.026"/><use xlink:href="#7" y="15.197"/><use xlink:href="#8" y="17.368"/></svg><svg x="2838"><use xlink:href="#a"/><use xlink:href="#1"/><use xlink:href="#2" y="2.171"/><use xlink:href="#3" y="4.342"/><use xlink:href="#4" y="6.513"/><use xlink:href="#5" y="8.684"/><use xlink:href="#6" y="10.855"/><use xlink:href="#5" y="13.026"/><use xlink:href="#7" y="15.197"/><use xlink:href="#8" y="17.368"/><use xlink:href="#9" y="19.539"/></svg><svg x="2924"><use xlink:href="#a"/><use xlink:href="#1"/><use xlink:href="#2" y="2.171"/><use xlink:href="#3" y="4.342"/><use xlink:href="#4" y="6.513"/><use xlink:href="#5" y="8.684"/><use xlink:href="#6" y="10.855"/><use xlink:href="#5" y="13.026"/><use xlink:href="#7" y="15.197"/><use xlink:href="#8" y="17.368"/></svg><svg x="3010"><use xlink:href="#a"/><use xlink:href="#1"/><use xlink:href="#2" y="2.171"/><use xlink:href="#3" y="4.342"/><use xlink:href="#4" y="6.513"/><use xlink:href="#5" y="8.684"/><use xlink:href="#6" y="10.855"/><use xlink:href="#5" y="13.026"/><use xlink:href="#7" y="15.197"/><use xlink:href="#8" y="17.368"/><use xlink:href="#10" y="19.539"/></svg><svg x="3096"><use xlink:href="#a"/><use xlink:href="#1"/><use xlink:href="#2" y="2.171"/><use xlink:href="#3" y="4.342"/><use xlink:href="#4" y="6.513"/><use xlink:href="#5" y="8.684"/><use xlink:href="#6" y="10.855"/><use xlink:href="#5" y="13.026"/><use xlink:href="#7" y="15.197"/><use xlink:href="#8" y="17.368"/></svg><svg x="3182"><use xlink:href="#a"/><use xlink:href="#1"/><use xlink:href="#2" y="2.171"/><use xlink:href="#3" y="4.342"/><use xlink:href="#4" y="6.513"/><use xlink:href="#5" y="8.684"/><use xlink:href="#6" y="10.855"/><use xlink:href="#5" y="13.026"/><use xlink:href="#7" y="15.197"/><use xlink:href="#8" y="17.368"/><use xlink:href="#11" y="19.539"/></svg><svg x="3268"><use xlink:href="#a"/><use xlink:href="#1"/><use xlink:href="#2" y="2.171"/><use xlink:href="#3" y="4.342"/><use xlink:href="#4" y="6.513"/><use xlink:href="#5" y="8.684"/><use xlink:href="#6" y="10.855"/><use xlink:href="#5" y="13.026"/><use xlink:href="#7" y="15.197"/><use xlink:href="#8" y="17.368"/></svg><svg x="3354"><use xlink:href="#a"/><use xlink:href="#1"/><use xlink:href="#2" y="2.171"/><use xlink:href="#3" y="4.342"/><use xlink:href="#4" y="6.513"/><use xlink:href="#5" y="8.684"/><use xlink:href="#6" y="10.855"/><use xlink:href="#5" y="13.026"/><use xlink:href="#7" y="15.197"/><use xlink:href="#8" y="17.368"/><use xlink:href="#12" y="19.539"/></svg><svg x="3440"><use xlink:href="#a"/><use xlink:href="#1"/><use xlink:href="#2" y="2.171"/><use xlink:href="#3" y="4.342"/><use xlink:href="#4" y="6.513"/><use xlink:href="#5" y="8.684"/><use xlink:href="#6" y="10.855"/><use xlink:href="#5" y="13.026"/><use xlink:href="#7" y="15.197"/><use xlink:href="#8" y="17.368"/></svg><svg x="3526"><use xlink:href="#a"/><use xlink:href="#1"/><use xlink:href="#2" y="2.171"/><use xlink:href="#3" y="4.342"/><use xlink:href="#4" y="6.513"/><use xlink:href="#5" y="8.684"/><use xlink:href="#6" y="10.855"/><use xlink:href="#5" y="13.026"/><use xlink:href="#7" y="15.197"/><use xlink:href="#8" y="17.368"/><use xlink:href="#13" y="19.539"/></svg><svg x="3612"><use xlink:href="#a"/><use xlink:href="#1"/><use xlink:href="#2" y="2.171"/><use xlink:href="#3" y="4.342"/><use xlink:href="#4" y="6.513"/><use xlink:href="#5" y="8.684"/><use xlink:href="#6" y="10.855"/><use xlink:href="#5" y="13.026"/><use xlink:href="#7" y="15.197"/><use xlink:href="#8" y="17.368"/></svg><svg x="3698"><use xlink:href="#a"/><use xlink:href="#1"/><use xlink:href="#2" y="2.171"/><use xlink:href="#3" y="4.342"/><use xlink:href="#4" y="6.513"/><use xlink:href="#5" y="8.684"/><use xlink:href="#6" y="10.855"/><use xlink:href="#5" y="13.026"/><use xlink:href="#7" y="15.197"/><use xlink:href="#8" y="17.368"/><use xlink:href="#14" y="19.539"/></svg><svg x="3784"><use xlink:href="#a"/><use xlink:href="#1"/><use xlink:href="#2" y="2.171"/><use xlink:href="#3" y="4.342"/><use xlink:href="#4" y="6.513"/><use xlink:href="#5" y="8.684"/><use xlink:href="#6" y="10.855"/><use xlink:href="#5" y="13.026"/><use xlink:href="#7" y="15.197"/><use xlink:href="#8" y="17.368"/></svg><svg x="3870"><use xlink:href="#a"/><use xlink:href="#1"/><use xlink:href="#2" y="2.171"/><use xlink:href="#3" y="4.342"/><use xlink:href="#4" y="6.513"/><use xlink:href="#5" y="8.684"/><use xlink:href="#6" y="10.855"/><use xlink:href="#5" y="13.026"/><use xlink:href="#7" y="15.197"/><use xlink:href="#8" y="17.368"/><use xlink:href="#15" y="19.539"/></svg><svg x="3956"><use xlink:href="#a"/><use xlink:href="#1"/><use xlink:href="#2" y="2.171"/><use xlink:href="#3" y="4.342"/><use xlink:href="#4" y="6.513"/><use xlink:href="#5" y="8.684"/><use xlink:href="#6" y="10.855"/><use xlink:href="#5" y="13.026"/><use xlink:href="#7" y="15.197"/><use xlink:href="#8" y="17.368"/></svg><svg x="4042"><use xlink:href="#a"/><use xlink:href="#1"/><use xlink:href="#2" y="2.171"/><use xlink:href="#3" y="4.342"/><use xlink:href="#4" y="6.513"/><use xlink:href="#5" y="8.684"/><use xlink:href="#6" y="10.855"/><use xlink:href="#5" y="13.026"/><use xlink:href="#7" y="15.197"/><use xlink:href="#8" y="17.368"/><use xlink:href="#16" y="19.539"/></svg><svg x="4128"><use xlink:href="#a"/><use xlink:href="#1"/><use xlink:href="#2" y="2.171"/><use xlink:href="#3" y="4.342"/><use xlink:href="#4" y="6.513"/><use xlink:href="#5" y="8.684"/><use xlink:href="#6" y="10.855"/><use xlink:href="#5" y="13.026"/><use xlink:href="#7" y="15.197"/><use xlink:href="#8" y="17.368"/></svg><svg x="4214"><use xlink:href="#a"/><use xlink:href="#1"/><use xlink:href="#2" y="2.171"/><use xlink:href="#3" y="4.342"/><use xlink:href="#4" y="6.513"/><use xlink:href="#5" y="8.684"/><use xlink:href="#6" y="10.855"/><use xlink:href="#5" y="13.026"/><use xlink:href="#7" y="15.197"/><use xlink:href="#8" y="17.368"/></svg><svg x="4300"><use xlink:href="#a"/><use xlink:href="#1"/><use xlink:href="#2" y="2.171"/><use xlink:href="#3" y="4.342"/><use xlink:href="#4" y="6.513"/><use xlink:href="#5" y="8.684"/><use xlink:href="#6" y="10.855"/><use xlink:href="#5" y="13.026"/><use xlink:href="#7" y="15.197"/><use xlink:href="#8" y="17.368"/><use xlink:href="#17" y="19.539"/></svg><svg x="4386"><use xlink:href="#a"/><use xlink:href="#1"/><use xlink:href="#2" y="2.171"/><use xlink:href="#3" y="4.342"/><use xlink:href="#4" y="6.513"/><use xlink:href="#5" y="8.684"/><use xlink:href="#6" y="10.855"/><use xlink:href="#5" y="13.026"/><use xlink:href="#7" y="15.197"/><use xlink:href="#8" y="17.368"/></svg><svg x="4472"><use xlink:href="#a"/><use xlink:href="#1"/><use xlink:href="#2" y="2.171"/><use xlink:href="#3" y="4.342"/><use xlink:href="#4" y="6.513"/><use xlink:href="#5" y="8.684"/><use xlink:href="#6" y="10.855"/><use xlink:href="#5" y="13.026"/><use xlink:href="#7" y="15.197"/><use xlink:href="#8" y="17.368"/><use xlink:href="#18" y="19.539"/></svg><svg x="4558"><use xlink:href="#a"/><use xlink:href="#1"/><use xlink:href="#2" y="2.171"/><use xlink:href="#3" y="4.342"/><use xlink:href="#4" y="6.513"/><use xlink:href="#5" y="8.684"/><use xlink:href="#6" y="10.855"/><use xlink:href="#5" y="13.026"/><use xlink:href="#7" y="15.197"/><use xlink:href="#8" y="17.368"/></svg><svg x="4644"><use xlink:href="#a"/><use xlink:href="#1"/><use xlink:href="#2" y="2.171"/><use xlink:href="#3" y="4.342"/><use xlink:href="#4" y="6.513"/><use xlink:href="#5" y="8.684"/><use xlink:href="#6" y="10.855"/><use xlink:href="#5" y="13.026"/><use xlink:href="#7" y="15.197"/><use xlink:href="#8" y="17.368"/><use xlink:href="#9" y="19.539"/></svg><svg x="4730"><use xlink:href="#a"/><use xlink:href="#1"/><use xlink:href="#2" y="2.171"/><use xlink:href="#3" y="4.342"/><use xlink:href="#4" y="6.513"/><use xlink:href="#5" y="8.684"/><use xlink:href="#6" y="10.855"/><use xlink:href="#5" y="13.026"/><use xlink:href="#7" y="15.197"/><use xlink:href="#8" y="17.368"/></svg><svg x="4816"><use xlink:href="#a"/><use xlink:href="#1"/><use xlink:href="#2" y="2.171"/><use xlink:href="#3" y="4.342"/><use xlink:href="#4" y="6.513"/><use xlink:href="#5" y="8.684"/><use xlink:href="#6" y="10.855"/><use xlink:href="#5" y="13.026"/><use xlink:href="#7" y="15.197"/><use xlink:href="#8" y="17.368"/><use xlink:href="#10" y="19.539"/></svg><svg x="4902"><use xlink:href="#a"/><use xlink:href="#1"/><use xlink:href="#2" y="2.171"/><use xlink:href="#3" y="4.342"/><use xlink:href="#4" y="6.513"/><use xlink:href="#5" y="8.684"/><use xlink:href="#6" y="10.855"/><use xlink:href="#5" y="13.026"/><use xlink:href="#7" y="15.197"/><use xlink:href="#8" y="17.368"/></svg><svg x="4988"><use xlink:href="#a"/><use xlink:href="#1"/><use xlink:href="#2" y="2.171"/><use xlink:href="#3" y="4.342"/><use xlink:href="#4" y="6.513"/><use xlink:href="#5" y="8.684"/><use xlink:href="#6" y="10.855"/><use xlink:href="#5" y="13.026"/><use xlink:href="#7" y="15.197"/><use xlink:href="#8" y="17.368"/><use xlink:href="#11" y="19.539"/></svg><svg x="5074"><use xlink:href="#a"/><use xlink:href="#1"/><use xlink:href="#2" y="2.171"/><use xlink:href="#3" y="4.342"/><use xlink:href="#4" y="6.513"/><use xlink:href="#5" y="8.684"/><use xlink:href="#6" y="10.855"/><use xlink:href="#5" y="13.026"/><use xlink:href="#7" y="15.197"/><use xlink:href="#8" y="17.368"/></svg><svg x="5160"><use xlink:href="#a"/><use xlink:href="#1"/><use xlink:href="#2" y="2.171"/><use xlink:href="#3" y="4.342"/><use xlink:href="#4" y="6.513"/><use xlink:href="#5" y="8.684"/><use xlink:href="#6" y="10.855"/><use xlink:href="#5" y="13.026"/><use xlink:href="#7" y="15.197"/><use xlink:href="#8" y="17.368"/><use xlink:href="#12" y="19.539"/></svg><svg x="5246"><use xlink:href="#a"/><use xlink:href="#1"/><use xlink:href="#2" y="2.171"/><use xlink:href="#3" y="4.342"/><use xlink:href="#4" y="6.513"/><use xlink:href="#5" y="8.684"/><use xlink:href="#6" y="10.855"/><use xlink:href="#5" y="13.026"/><use xlink:href="#7" y="15.197"/><use xlink:href="#8" y="17.368"/></svg><svg x="5332"><use xlink:href="#a"/><use xlink:href="#1"/><use xlink:href="#2" y="2.171"/><use xlink:href="#3" y="4.342"/><use xlink:href="#4" y="6.513"/><use xlink:href="#5" y="8.684"/><use xlink:href="#6" y="10.855"/><use xlink:href="#5" y="13.026"/><use xlink:href="#7" y="15.197"/><use xlink:href="#8" y="17.368"/><use xlink:href="#13" y="19.539"/></svg><svg x="5418"><use xlink:href="#a"/><use xlink:href="#1"/><use xlink:href="#2" y="2.171"/><use xlink:href="#3" y="4.342"/><use xlink:href="#4" y="6.513"/><use xlink:href="#5" y="8.684"/><use xlink:href="#6" y="10.855"/><use xlink:href="#5" y="13.026"/><use xlink:href="#7" y="15.197"/><use xlink:href="#8" y="17.368"/></svg><svg x="5504"><use xlink:href="#a"/><use xlink:href="#1"/><use xlink:href="#2" y="2.171"/><use xlink:href="#3" y="4.342"/><use xlink:href="#4" y="6.513"/><use xlink:href="#5" y="8.684"/><use xlink:href="#6" y="10.855"/><use xlink:href="#5" y="13.026"/><use xlink:href="#7" y="15.197"/><use xlink:href="#8" y="17.368"/><use xlink:href="#14" y="19.539"/></svg><svg x="5590"><use xlink:href="#a"/><use xlink:href="#1"/><use xlink:href="#2" y="2.171"/><use xlink:href="#3" y="4.342"/><use xlink:href="#4" y="6.513"/><use xlink:href="#5" y="8.684"/><use xlink:href="#6" y="10.855"/><use xlink:href="#5" y="13.026"/><use xlink:href="#7" y="15.197"/><use xlink:href="#8" y="17.368"/></svg><svg x="5676"><use xlink:href="#a"/><use xlink:href="#1"/><use xlink:href="#2" y="2.171"/><use xlink:href="#3" y="4.342"/><use xlink:href="#4" y="6.513"/><use xlink:href="#5" y="8.684"/><use xlink:href="#6" y="10.855"/><use xlink:href="#5" y="13.026"/><use xlink:href="#7" y="15.197"/><use xlink:href="#8" y="17.368"/><use xlink:href="#15" y="19.539"/></svg><svg x="5762"><use xlink:href="#a"/><use xlink:href="#1"/><use xlink:href="#2" y="2.171"/><use xlink:href="#3" y="4.342"/><use xlink:href="#4" y="6.513"/><use xlink:href="#5" y="8.684"/><use xlink:href="#6" y="10.855"/><use xlink:href="#5" y="13.026"/><use xlink:href="#7" y="15.197"/><use xlink:href="#8" y="17.368"/></svg><svg x="5848"><use xlink:href="#a"/><use xlink:href="#1"/><use xlink:href="#2" y="2.171"/><use xlink:href="#3" y="4.342"/><use xlink:href="#4" y="6.513"/><use xlink:href="#5" y="8.684"/><use xlink:href="#6" y="10.855"/><use xlink:href="#5" y="13.026"/><use xlink:href="#7" y="15.197"/><use xlink:href="#8" y="17.368"/><use xlink:href="#16" y="19.539"/></svg><svg x="5934"><use xlink:href="#a"/><use xlink:href="#1"/><use xlink:href="#2" y="2.171"/><use xlink:href="#3" y="4.342"/><use xlink:href="#4" y="6.513"/><use xlink:href="#5" y="8.684"/><use xlink:href="#6" y="10.855"/><use xlink:href="#5" y="13.026"/><use xlink:href="#7" y="15.197"/><use xlink:href="#8" y="17.368"/></svg><svg x="6020"><use xlink:href="#a"/><use xlink:href="#1"/><use xlink:href="#2" y="2.171"/><use xlink:href="#3" y="4.342"/><use xlink:href="#4" y="6.513"/><use xlink:href="#5" y="8.684"/><use xlink:href="#6" y="10.855"/><use xlink:href="#5" y="13.026"/><use xlink:href="#7" y="15.197"/><use xlink:href="#8" y="17.368"/><use xlink:href="#17" y="19.539"/></svg><svg x="6106"><use xlink:href="#a"/><use xlink:href="#1"/><use xlink:href="#2" y="2.171"/><use xlink:href="#3" y="4.342"/><use xlink:href="#4" y="6.513"/><use xlink:href="#5" y="8.684"/><use xlink:href="#6" y="10.855"/><use xlink:href="#5" y="13.026"/><use xlink:href="#7" y="15.197"/><use xlink:href="#8" y="17.368"/></svg><svg x="6192"><use xlink:href="#a"/><use xlink:href="#1"/><use xlink:href="#2" y="2.171"/><use xlink:href="#3" y="4.342"/><use xlink:href="#4" y="6.513"/><use xlink:href="#5" y="8.684"/><use xlink:href="#6" y="10.855"/><use xlink:href="#5" y="13.026"/><use xlink:href="#7" y="15.197"/><use xlink:href="#8" y="17.368"/><use xlink:href="#18" y="19.539"/></svg><svg x="6278"><use xlink:href="#a"/><use xlink:href="#1"/><use xlink:href="#2" y="2.171"/><use xlink:href="#3" y="4.342"/><use xlink:href="#4" y="6.513"/><use xlink:href="#5" y="8.684"/><use xlink:href="#6" y="10.855"/><use xlink:href="#5" y="13.026"/><use xlink:href="#7" y="15.197"/><use xlink:href="#8" y="17.368"/></svg><svg x="6364"><use xlink:href="#a"/><use xlink:href="#1"/><use xlink:href="#2" y="2.171"/><use xlink:href="#3" y="4.342"/><use xlink:href="#4" y="6.513"/><use xlink:href="#5" y="8.684"/><use xlink:href="#6" y="10.855"/><use xlink:href="#5" y="13.026"/><use xlink:href="#7" y="15.197"/><use xlink:href="#8" y="17.368"/><use xlink:href="#9" y="19.539"/></svg><svg x="6450"><use xlink:href="#a"/><use xlink:href="#1"/><use xlink:href="#2" y="2.171"/><use xlink:href="#3" y="4.342"/><use xlink:href="#4" y="6.513"/><use xlink:href="#5" y="8.684"/><use xlink:href="#6" y="10.855"/><use xlink:href="#5" y="13.026"/><use xlink:href="#7" y="15.197"/><use xlink:href="#8" y="17.368"/></svg><svg x="6536"><use xlink:href="#a"/><use xlink:href="#1"/><use xlink:href="#2" y="2.171"/><use xlink:href="#3" y="4.342"/><use xlink:href="#4" y="6.513"/><use xlink:href="#5" y="8.684"/><use xlink:href="#6" y="10.855"/><use xlink:href="#5" y="13.026"/><use xlink:href="#7" y="15.197"/><use xlink:href="#8" y="17.368"/><use xlink:href="#10" y="19.539"/></svg><svg x="6622"><use xlink:href="#a"/><use xlink:href="#1"/><use xlink:href="#2" y="2.171"/><use xlink:href="#3" y="4.342"/><use xlink:href="#4" y="6.513"/><use xlink:href="#5" y="8.684"/><use xlink:href="#6" y="10.855"/><use xlink:href="#5" y="13.026"/><use xlink:href="#7" y="15.197"/><use xlink:href="#8" y="17.368"/></svg><svg x="6708"><use xlink:href="#a"/><use xlink:href="#1"/><use xlink:href="#2" y="2.171"/><use xlink:href="#3" y="4.342"/><use xlink:href="#4" y="6.513"/><use xlink:href="#5" y="8.684"/><use xlink:href="#6" y="10.855"/><use xlink:href="#5" y="13.026"/><use xlink:href="#7" y="15.197"/><use xlink:href="#8" y="17.368"/><use xlink:href="#11" y="19.539"/></svg><svg x="6794"><use xlink:href="#a"/><use xlink:href="#1"/><use xlink:href="#2" y="2.171"/><use xlink:href="#3" y="4.342"/><use xlink:href="#4" y="6.513"/><use xlink:href="#5" y="8.684"/><use xlink:href="#6" y="10.855"/><use xlink:href="#5" y="13.026"/><use xlink:href="#7" y="15.197"/><use xlink:href="#8" y="17.368"/></svg><svg x="6880"><use xlink:href="#a"/><use xlink:href="#1"/><use xlink:href="#2" y="2.171"/><use xlink:href="#3" y="4.342"/><use xlink:href="#4" y="6.513"/><use xlink:href="#5" y="8.684"/><use xlink:href="#6" y="10.855"/><use xlink:href="#5" y="13.026"/><use xlink:href="#7" y="15.197"/><use xlink:href="#8" y="17.368"/><use xlink:href="#12" y="19.539"/></svg><svg x="6966"><use xlink:href="#a"/><use xlink:href="#1"/><use xlink:href="#2" y="2.171"/><use xlink:href="#3" y="4.342"/><use xlink:href="#4" y="6.513"/><use xlink:href="#5" y="8.684"/><use xlink:href="#6" y="10.855"/><use xlink:href="#5" y="13.026"/><use xlink:href="#7" y="15.197"/><use xlink:href="#8" y="17.368"/></svg><svg x="7052"><use xlink:href="#a"/><use xlink:href="#1"/><use xlink:href="#2" y="2.171"/><use xlink:href="#3" y="4.342"/><use xlink:href="#4" y="6.513"/><use xlink:href="#5" y="8.684"/><use xlink:href="#6" y="10.855"/><use xlink:href="#5" y="13.026"/><use xlink:href="#7" y="15.197"/><use xlink:href="#8" y="17.368"/><use xlink:href="#13" y="19.539"/></svg><svg x="7138"><use xlink:href="#a"/><use xlink:href="#1"/><use xlink:href="#2" y="2.171"/><use xlink:href="#3" y="4.342"/><use xlink:href="#4" y="6.513"/><use xlink:href="#5" y="8.684"/><use xlink:href="#6" y="10.855"/><use xlink:href="#5" y="13.026"/><use xlink:href="#7" y="15.197"/><use xlink:href="#8" y="17.368"/></svg><svg x="7224"><use xlink:href="#a"/><use xlink:href="#1"/><use xlink:href="#2" y="2.171"/><use xlink:href="#3" y="4.342"/><use xlink:href="#4" y="6.513"/><use xlink:href="#5" y="8.684"/><use xlink:href="#6" y="10.855"/><use xlink:href="#5" y="13.026"/><use xlink:href="#7" y="15.197"/><use xlink:href="#8" y="17.368"/><use xlink:href="#14" y="19.539"/></svg><svg x="7310"><use xlink:href="#a"/><use xlink:href="#1"/><use xlink:href="#2" y="2.171"/><use xlink:href="#3" y="4.342"/><use xlink:href="#4" y="6.513"/><use xlink:href="#5" y="8.684"/><use xlink:href="#6" y="10.855"/><use xlink:href="#5" y="13.026"/><use xlink:href="#7" y="15.197"/><use xlink:href="#8" y="17.368"/></svg><svg x="7396"><use xlink:href="#a"/><use xlink:href="#1"/><use xlink:href="#2" y="2.171"/><use xlink:href="#3" y="4.342"/><use xlink:href="#4" y="6.513"/><use xlink:href="#5" y="8.684"/><use xlink:href="#6" y="10.855"/><use xlink:href="#5" y="13.026"/><use xlink:href="#7" y="15.197"/><use xlink:href="#8" y="17.368"/><use xlink:href="#15" y="19.539"/></svg><svg x="7482"><use xlink:href="#a"/><use xlink:href="#1"/><use xlink:href="#2" y="2.171"/><use xlink:href="#3" y="4.342"/><use xlink:href="#4" y="6.513"/><use xlink:href="#5" y="8.684"/><use xlink:href="#6" y="10.855"/><use xlink:href="#5" y="13.026"/><use xlink:href="#7" y="15.197"/><use xlink:href="#8" y="17.368"/></svg><svg x="7568"><use xlink:href="#a"/><use xlink:href="#1"/><use xlink:href="#2" y="2.171"/><use xlink:href="#3" y="4.342"/><use xlink:href="#4" y="6.513"/><use xlink:href="#5" y="8.684"/><use xlink:href="#6" y="10.855"/><use xlink:href="#5" y="13.026"/><use xlink:href="#7" y="15.197"/><use xlink:href="#8" y="17.368"/><use xlink:href="#16" y="19.539"/></svg><svg x="7654"><use xlink:href="#a"/><use xlink:href="#1"/><use xlink:href="#2" y="2.171"/><use xlink:href="#3" y="4.342"/><use xlink:href="#4" y="6.513"/><use xlink:href="#5" y="8.684"/><use xlink:href="#6" y="10.855"/><use xlink:href="#5" y="13.026"/><use xlink:href="#7" y="15.197"/><use xlink:href="#8" y="17.368"/></svg><svg x="7740"><use xlink:href="#a"/><use xlink:href="#1"/><use xlink:href="#2" y="2.171"/><use xlink:href="#3" y="4.342"/><use xlink:href="#4" y="6.513"/><use xlink:href="#5" y="8.684"/><use xlink:href="#6" y="10.855"/><use xlink:href="#5" y="13.026"/><use xlink:href="#7" y="15.197"/><use xlink:href="#8" y="17.368"/><use xlink:href="#17" y="19.539"/></svg><svg x="7826"><use xlink:href="#a"/><use xlink:href="#1"/><use xlink:href="#2" y="2.171"/><use xlink:href="#3" y="4.342"/><use xlink:href="#4" y="6.513"/><use xlink:href="#5" y="8.684"/><use xlink:href="#6" y="10.855"/><use xlink:href="#5" y="13.026"/><use xlink:href="#7" y="15.197"/><use xlink:href="#8" y="17.368"/></svg><svg x="7912"><use xlink:href="#a"/><use xlink:href="#1"/><use xlink:href="#2" y="2.171"/><use xlink:href="#3" y="4.342"/><use xlink:href="#4" y="6.513"/><use xlink:href="#5" y="8.684"/><use xlink:href="#6" y="10.855"/><use xlink:href="#5" y="13.026"/><use xlink:href="#7" y="15.197"/><use xlink:href="#8" y="17.368"/><use xlink:href="#18" y="19.539"/></svg><svg x="7998"><use xlink:href="#a"/><use xlink:href="#1"/><use xlink:href="#2" y="2.171"/><use xlink:href="#3" y="4.342"/><use xlink:href="#4" y="6.513"/><use xlink:href="#5" y="8.684"/><use xlink:href="#6" y="10.855"/><use xlink:href="#5" y="13.026"/><use xlink:href="#7" y="15.197"/><use xlink:href="#8" y="17.368"/></svg><svg x="8084"><use xlink:href="#a"/><use xlink:href="#1"/><use xlink:href="#2" y="2.171"/><use xlink:href="#3" y="4.342"/><use xlink:href="#4" y="6.513"/><use xlink:href="#5" y="8.684"/><use xlink:href="#6" y="10.855"/><use xlink:href="#5" y="13.026"/><use xlink:href="#7" y="15.197"/><use xlink:href="#8" y="17.368"/><use xlink:href="#9" y="19.539"/></svg><svg x="8170"><use xlink:href="#a"/><use xlink:href="#1"/><use xlink:href="#2" y="2.171"/><use xlink:href="#3" y="4.342"/><use xlink:href="#4" y="6.513"/><use xlink:href="#5" y="8.684"/><use xlink:href="#6" y="10.855"/><use xlink:href="#5" y="13.026"/><use xlink:href="#7" y="15.197"/><use xlink:href="#8" y="17.368"/></svg><svg x="8256"><use xlink:href="#a"/><use xlink:href="#1"/><use xlink:href="#2" y="2.171"/><use xlink:href="#3" y="4.342"/><use xlink:href="#4" y="6.513"/><use xlink:href="#5" y="8.684"/><use xlink:href="#6" y="10.855"/><use xlink:href="#5" y="13.026"/><use xlink:href="#7" y="15.197"/><use xlink:href="#8" y="17.368"/><use xlink:href="#10" y="19.539"/></svg></svg></g></g></svg></svg>